# xmcd
# 
# Track frame offsets:
#     183
#     22138
#     59090
# 
# Disc length: 1200
# 
# Revision: 7
# Processed by: cddbd v1.5.2PL0 Copyright (c) Steve Scherf et al.
# Submitted via: fre:ac v1.0.17
# 
DISCID=2804ae03
DTITLE=MYLÈNE FARMER - Désenchantée
DYEAR=1991
DGENRE=Québec - France/Dance
TTITLE0=Désenchantée (Single Version)
TTITLE1=Désenchantée (Remix Club)
TTITLE2=Désenchantée (Chaos Mix)
EXTD=
EXTT0=
EXTT1=
EXTT2=
PLAYORDER=
